# xmcd
#
# Track frame offsets: 
#        150
#        19875
#        31917
#        48800
#        63382
#        79282
#        94500
#        112080
#        127062
#        144130
#        156175
#        173735
#        188942
#        203192
#
# Disc length: 2986 seconds
#
# Revision: 0
# Processed by: cddbd v1.5.2PL0 Copyright (c) Steve Scherf et al.
# Submitted via: ExactAudioCopyFreeDBPlugin 1.0
#
DISCID=ba0ba80e
DTITLE=ดวงตา คงทอง - 1+2 เพลงใหม่
DYEAR=2003
DGENRE=Country
TTITLE0=ไม่ขอแก้บน
TTITLE1=รอคอยข่าว
TTITLE2=กลับบ้านนอกดีกว่า
TTITLE3=รวยหรือยัง
TTITLE4=เงินหรือจะซื้อใจ
TTITLE5=เมืองกาญจน์บ้านฉัน
TTITLE6=ส่งแฟนขึ้นรถ
TTITLE7=จากกันพันลี้
TTITLE8=ส.ค.ส.
TTITLE9=น้ำตาต่างน้ำ
TTITLE10=คนบางกอกหลอกเก้อ
TTITLE11=เจอกันในงานบวช
TTITLE12=รักหนุ่มไฟฟ้า
TTITLE13=ลูกทุ่งของไทย
EXTD=
EXTT0=
EXTT1=
EXTT2=
EXTT3=
EXTT4=
EXTT5=
EXTT6=
EXTT7=
EXTT8=
EXTT9=
EXTT10=
EXTT11=
EXTT12=
EXTT13=
PLAYORDER=
